HIERARCHY
ROOT Hips
{
	OFFSET	0.00	0.00	0.00
	CHANNELS 6 Xposition Yposition Zposition Zrotation Xrotation Yrotation
	JOINT LeftUpperLeg
	{
		OFFSET	 0.100000	-0.066564	-0.000554
		CHANNELS 3 Zrotation Xrotation Yrotation
		JOINT LeftLowerLeg
		{
			OFFSET	 0.002447	-0.463436	-0.005172
			CHANNELS 3 Zrotation Xrotation Yrotation
			JOINT LeftFoot
			{
				OFFSET	-0.002447	-0.420480	-0.020576
				CHANNELS 3 Zrotation Xrotation Yrotation
				JOINT LeftToes
				{
					OFFSET	 0.003734	-0.104922	 0.126407
					CHANNELS 3 Zrotation Xrotation Yrotation
					End Site
					{
						OFFSET	 0.000000	 0.000000	 0.059955
					}
				}
			}
		}
	}
	JOINT RightUpperLeg
	{
		OFFSET	-0.100000	-0.066564	-0.000554
		CHANNELS 3 Zrotation Xrotation Yrotation
		JOINT RightLowerLeg
		{
			OFFSET	-0.002447	-0.463436	-0.005146
			CHANNELS 3 Zrotation Xrotation Yrotation
			JOINT RightFoot
			{
				OFFSET	 0.002447	-0.420479	-0.020602
				CHANNELS 3 Zrotation Xrotation Yrotation
				JOINT RightToes
				{
					OFFSET	-0.003734	-0.104922	 0.126407
					CHANNELS 3 Zrotation Xrotation Yrotation
					End Site
					{
						OFFSET	-0.000000	 0.000000	 0.059955
					}
				}
			}
		}
	}
	JOINT Spine
	{
		OFFSET	 0.000000	 0.099235	-0.012273
		CHANNELS 3 Zrotation Xrotation Yrotation
		JOINT Chest
		{
			OFFSET	-0.000001	 0.116455	-0.014223
			CHANNELS 3 Zrotation Xrotation Yrotation
			JOINT UpperChest
			{
				OFFSET	 0.000001	 0.133602	-0.016265
				CHANNELS 3 Zrotation Xrotation Yrotation
				JOINT LeftShoulder
				{
					OFFSET	 0.061058	 0.091105	 0.007056
					CHANNELS 3 Zrotation Xrotation Yrotation
					JOINT LeftUpperArm
					{
						OFFSET	 0.133942	-0.002659	-0.026009
						CHANNELS 3 Zrotation Xrotation Yrotation
						JOINT LeftLowerArm
						{
							OFFSET	 0.274047	 0.000000	 0.000000
							CHANNELS 3 Zrotation Xrotation Yrotation
							JOINT LeftHand
							{
								OFFSET	 0.276145	 0.000000	 0.000000
								CHANNELS 3 Zrotation Xrotation Yrotation
								End Site
								{
									OFFSET	 0.165687	 0.000000	 0.000000
								}
							}
						}
					}
				}
				JOINT Neck
				{
					OFFSET	 0.000000	 0.150325	 0.007929
					CHANNELS 3 Zrotation Xrotation Yrotation
					JOINT Head
					{
						OFFSET	 0.000000	 0.103218	 0.031424
						CHANNELS 3 Zrotation Xrotation Yrotation
						End Site
						{
							OFFSET	 0.000000	 0.061931	 0.018855
						}
					}
				}
				JOINT RightShoulder
				{
					OFFSET	-0.061057	 0.091105	 0.007056
					CHANNELS 3 Zrotation Xrotation Yrotation
					JOINT RightUpperArm
					{
						OFFSET	-0.133943	-0.002660	-0.026009
						CHANNELS 3 Zrotation Xrotation Yrotation
						JOINT RightLowerArm
						{
							OFFSET	-0.274047	 0.000000	 0.000000
							CHANNELS 3 Zrotation Xrotation Yrotation
							JOINT RightHand
							{
								OFFSET	-0.276145	 0.000000	 0.000000
								CHANNELS 3 Zrotation Xrotation Yrotation
								End Site
								{
									OFFSET	-0.165687	 0.000000	 0.000000
								}
							}
						}
					}
				}
			}
		}
	}
}
MOTION
Frames:    9
Frame Time: 0.03333334
-0.294200	 1.025270	 0.384990	 0.440650	 5.362917	-9.607368	 9.774269	-23.406510	 22.674100	-0.022486	 9.189262	-0.005373	-0.716835	 10.571000	 19.677490	-0.001037	 0.657185	 0.000327	-2.152462	 11.362880	-12.552510	 0.000485	 0.375746	-0.000524	 9.662599	-16.412020	 5.337808	 0.000949	 0.619662	-0.000045	 2.172436	 1.460578	-2.133440	-0.000000	 0.000000	 0.000000	 4.408904	 2.841869	-4.331017	 5.672285	-0.260800	-29.810520	-79.761890	-52.238120	 8.128699	-24.748910	 9.312402	-44.383260	 32.301390	 19.202250	-24.622480	-4.808980	 2.383356	 3.312429	-5.274817	 2.419100	 3.427698	 0.687679	-2.836581	-5.547414	 62.664960	-1.085339	 30.972470	 11.708650	 11.533970	 62.724610	-47.315320	 0.111146	 4.749448
-0.304110	 1.028670	 0.328790	-0.233041	 2.628567	-6.649901	 7.205383	-18.284310	 24.316800	 0.001075	 0.246479	 0.000146	-7.764104	 14.516950	 14.107620	 0.000397	 0.432237	 0.000106	-1.469244	 4.870007	-11.819850	 0.001031	 13.356030	 0.008735	 7.415465	-21.969090	 2.882359	-0.000907	 1.921355	 0.000003	 3.026213	 1.954049	-2.179799	-0.000000	 0.000000	 0.000000	 6.141575	 3.796114	-4.473942	 3.942297	-2.842238	-30.764300	-79.163510	-48.980840	 7.188963	-25.545950	 11.354950	-46.808380	 28.500250	 20.129730	-24.342980	-4.986485	 2.515356	 3.340092	-5.502024	 2.233456	 3.339170	-0.965353	-4.485220	-5.519079	 61.960950	-2.662864	 38.674480	 10.289630	 11.539860	 72.276780	-46.161730	 1.935318	 6.445313
-0.304110	 1.028670	 0.328790	-0.233041	 2.628567	-6.649901	 7.205383	-18.284310	 24.316800	 0.001075	 0.246479	 0.000146	-7.764104	 14.516950	 14.107620	 0.000397	 0.432237	 0.000106	-1.469244	 4.870007	-11.819850	 0.001031	 13.356030	 0.008735	 7.415465	-21.969090	 2.882359	-0.000907	 1.921355	 0.000003	 3.026213	 1.954049	-2.179799	-0.000000	 0.000000	 0.000000	 6.141575	 3.796114	-4.473942	 3.942297	-2.842238	-30.764300	-79.163510	-48.980840	 7.188963	-25.545950	 11.354950	-46.808380	 28.500250	 20.129730	-24.342980	-4.986485	 2.515356	 3.340092	-5.502024	 2.233456	 3.339170	-0.965353	-4.485220	-5.519079	 61.960950	-2.662864	 38.674480	 10.289630	 11.539860	 72.276780	-46.161730	 1.935318	 6.445313
-0.307680	 1.029500	 0.313940	-0.014951	 2.166729	-5.394226	 6.695621	-18.627300	 23.082160	 0.012434	 1.764161	-0.002236	-8.373318	 11.680180	 13.457660	 0.000253	 0.240325	 0.000626	-1.530285	 3.325000	-12.470710	 0.048284	 15.805650	 0.004613	 6.887799	-22.367770	 2.184871	 0.000286	 1.735307	-0.000668	 3.039834	 1.799406	-2.302456	-0.000000	 0.000000	 0.000000	 6.169094	 3.479809	-4.711063	 2.399053	-4.673268	-30.622460	-78.044140	-47.468480	 8.001494	-25.767680	 11.845810	-46.988560	 27.717820	 19.772520	-23.826420	-5.189439	 2.132552	 2.970891	-5.253337	 2.424022	 3.234187	-1.504734	-5.420340	-5.504730	 62.767200	-3.352653	 39.196770	 9.408323	 12.110480	 75.009290	-45.977620	 2.557737	 5.826560
-0.307680	 1.029500	 0.313940	-0.014951	 2.166729	-5.394226	 6.695621	-18.627300	 23.082160	 0.012434	 1.764161	-0.002236	-8.373318	 11.680180	 13.457660	 0.000253	 0.240325	 0.000626	-1.530285	 3.325000	-12.470710	 0.048284	 15.805650	 0.004613	 6.887799	-22.367770	 2.184871	 0.000286	 1.735307	-0.000668	 3.039834	 1.799406	-2.302456	-0.000000	 0.000000	 0.000000	 6.169094	 3.479809	-4.711063	 2.399053	-4.673268	-30.622460	-78.044140	-47.468480	 8.001494	-25.767680	 11.845810	-46.988560	 27.717820	 19.772520	-23.826420	-5.189439	 2.132552	 2.970891	-5.253337	 2.424022	 3.234187	-1.504734	-5.420340	-5.504730	 62.767200	-3.352653	 39.196770	 9.408323	 12.110480	 75.009290	-45.977620	 2.557737	 5.826560
-0.312300	 1.031510	 0.292690	 0.846336	 1.380662	-3.534786	 5.715770	-18.757640	 19.369260	-0.017038	 5.216678	-0.002409	-6.289827	 6.134035	 14.595290	-0.000237	 0.318591	-0.000198	-2.319109	 1.460252	-14.408830	 0.007450	 18.771730	 0.011299	 6.287351	-22.259050	 1.861247	 0.000063	 1.198061	 0.000203	 2.814148	 1.322414	-2.285717	-0.000000	 0.000000	 0.000000	 5.692099	 2.536427	-4.645400	 0.281834	-5.265214	-30.420590	-77.214220	-45.725610	 7.850481	-26.485690	 12.820890	-47.164020	 26.278890	 19.141630	-21.567800	-4.393381	 0.601717	-0.220615	-3.995513	 1.582256	-0.190193	-2.462660	-5.653560	-5.159597	 63.895630	-3.555996	 39.334960	 8.747939	 11.705570	 79.294090	-46.356060	 3.232291	 3.992220
-0.313520	 1.032580	 0.282400	 1.510263	 1.073826	-2.985098	 4.979455	-18.000840	 18.764320	-0.031226	 6.162431	-0.002868	-5.518788	 4.445201	 15.646810	 0.000186	 0.340408	 0.000353	-3.017584	 0.588669	-14.958140	-0.000196	 19.937500	 0.011819	 6.074250	-22.198060	 1.890982	 0.000090	 1.106779	-0.000069	 2.633223	 1.126351	-2.133121	-0.000000	 0.000000	 0.000000	 5.319407	 2.157282	-4.327254	-0.070578	-4.428566	-30.211550	-77.490220	-45.430890	 7.343362	-26.818720	 13.406010	-47.992340	 25.435030	 18.829380	-20.573360	-4.381247	 1.129916	-0.632279	-4.034503	 1.558484	-0.903417	-2.694176	-4.867469	-4.898124	 64.204460	-3.589997	 39.288920	 8.292665	 11.487810	 81.218610	-46.987230	 4.136600	 3.364295
-0.313050	 1.034570	 0.274570	 2.399931	 0.452073	-2.774319	 3.484337	-14.986700	 20.509430	 0.000352	 3.643765	-0.003148	-4.372158	 5.712575	 14.527900	-0.000048	 0.347850	-0.000085	-3.911980	 0.399675	-14.688670	-0.021665	 20.486660	 0.017820	 5.758419	-22.014530	 1.491280	 0.000380	 1.075305	-0.000268	 2.416630	 1.055836	-1.900332	-0.000000	 0.000000	 0.000000	 4.876172	 2.033113	-3.850541	-0.599056	-3.988558	-29.887590	-77.414470	-45.743310	 7.074910	-27.079960	 14.862780	-49.022500	 24.915180	 19.213940	-20.828000	-4.844254	 1.327723	-0.872223	-4.401103	 1.520671	-1.317534	-3.153546	-4.644945	-4.737104	 64.246250	-3.635340	 39.244950	 7.563136	 11.344160	 82.869530	-47.832940	 5.536997	 3.327088
-0.312140	 1.035970	 0.274530	 2.848771	-0.248704	-2.577744	 2.257781	-12.641950	 22.166870	 0.003294	 0.754586	-0.000056	-2.715156	 8.621842	 11.788260	-0.000048	 0.353779	-0.000597	-4.243038	 1.300107	-13.957050	 0.013808	 19.992000	 0.011341	 5.461476	-21.866870	 0.553302	-0.000064	 1.097266	-0.000491	 2.341210	 1.090993	-1.844283	-0.000000	 0.000000	 0.000000	 4.725882	 2.109896	-3.739986	-0.725607	-3.650792	-30.094630	-77.215030	-46.254110	 7.497114	-26.926260	 16.229770	-49.852990	 24.595230	 19.196020	-21.227210	-4.674577	 1.234298	-1.668265	-4.517383	 1.177368	-1.777239	-3.139718	-4.416019	-5.023579	 64.349330	-3.799977	 39.342110	 7.353840	 11.534640	 83.282300	-48.124040	 6.449465	 2.961267
